<svg width="618" height="618" xmlns="http://www.w3.org/2000/svg" xmlns:xlink="http://www.w3.org/1999/xlink" overflow="hidden"><defs><clipPath id="clip0"><rect x="147" y="85" width="618" height="618"/></clipPath></defs><g clip-path="url(#clip0)" transform="translate(-147 -85)"><path d="M636.25 291 636.25 342.5 584.75 342.5 584.75 291 636.25 291ZM275.75 522.75 327.25 522.75 327.25 574.25 275.75 574.25 275.75 522.75ZM404.5 291 404.5 342.5 353 342.5 353 291 404.5 291ZM481.75 291 481.75 342.5 430.25 342.5 430.25 291 481.75 291ZM559 419.75 507.5 419.75 507.5 368.25 559 368.25 559 419.75ZM584.75 419.75 584.75 368.25 636.25 368.25 636.25 419.75 584.75 419.75ZM584.75 497 584.75 445.5 636.25 445.5 636.25 497 584.75 497ZM430.25 522.75 481.75 522.75 481.75 574.25 430.25 574.25 430.25 522.75ZM404.5 522.75 404.5 574.25 353 574.25 353 522.75 404.5 522.75ZM353 445.5 404.5 445.5 404.5 497 353 497 353 445.5ZM327.25 445.5 327.25 497 275.75 497 275.75 445.5 327.25 445.5ZM327.25 368.25 327.25 419.75 275.75 419.75 275.75 368.25 327.25 368.25ZM404.5 419.75 353 419.75 353 368.25 404.5 368.25 404.5 419.75ZM430.25 419.75 430.25 368.25 481.75 368.25 481.75 419.75 430.25 419.75ZM481.75 497 430.25 497 430.25 445.5 481.75 445.5 481.75 497ZM507.5 497 507.5 445.5 559 445.5 559 497 507.5 497ZM559 291 559 342.5 507.5 342.5 507.5 291 559 291ZM237.125 252.375 237.125 612.875 674.875 612.875 674.875 252.375 237.125 252.375Z"/><path d="M237.125 175.125 674.875 175.125 674.875 226.625 237.125 226.625Z"/></g></svg>