<svg viewBox="0 0 96 96" xmlns="http://www.w3.org/2000/svg" xmlns:xlink="http://www.w3.org/1999/xlink" id="Icons_Eye_M" overflow="hidden"><g id="Icons"><path d="M86.751 47.34C85.985 46.468 67.768 26 48 26 28.232 26 10.015 46.468 9.249 47.34 8.91735 47.7175 8.91735 48.2825 9.249 48.66 10.015 49.532 28.232 70 48 70 67.768 70 85.985 49.532 86.751 48.66 87.0826 48.2825 87.0826 47.7175 86.751 47.34ZM29 48C29 37.5066 37.5066 29 48 29 58.4934 29 67 37.5066 67 48 67 58.4934 58.4934 67 48 67 37.5114 66.9884 29.0116 58.4886 29 48ZM11.359 48C13.959 45.24 24.536 34.583 37.112 30.055 37.161 30.037 37.165 30.045 37.12 30.072 27.2186 36.0477 24.0362 48.9185 30.0119 58.8199 31.769 61.7313 34.2086 64.1709 37.12 65.928 37.165 65.955 37.161 65.963 37.112 65.945 24.536 61.417 13.955 50.76 11.359 48ZM58.888 65.945C58.839 65.963 58.835 65.955 58.88 65.928 68.7814 59.9523 71.9638 47.0815 65.9881 37.1801 64.231 34.2687 61.7914 31.8291 58.88 30.072 58.835 30.045 58.839 30.037 58.888 30.055 71.464 34.583 82.045 45.24 84.641 48 82.045 50.76 71.464 61.417 58.888 65.945Z"/><path d="M48 39C43.0294 39 39 43.0294 39 48 39 52.9706 43.0294 57 48 57 52.9706 57 57 52.9706 57 48 56.9939 43.0319 52.9681 39.0061 48 39ZM48 55C44.134 55 41 51.866 41 48 41 44.134 44.134 41 48 41 51.866 41 55 44.134 55 48 54.9956 51.8642 51.8642 54.9956 48 55Z"/></g></svg>