<svg viewBox="0 0 96 96" xmlns="http://www.w3.org/2000/svg" xmlns:xlink="http://www.w3.org/1999/xlink" id="Icons_Blind_M" overflow="hidden"><g id="Icons"><path d="M28 60.927 29.459 59.468C23.5254 55.8634 18.1701 51.3836 13.574 46.18 12.8703 45.3878 12.9108 44.1832 13.666 43.44 17.649 39.52 26.919 31.452 38.44 28.3 38.488 28.287 38.491 28.3 38.448 28.318 28.6981 33.431 24.9391 45.4797 30.0521 55.2297 30.4625 56.0123 30.9245 56.7667 31.435 57.488L32.86 56.063C27.2947 47.8317 29.4559 36.6473 37.6872 31.082 43.7747 26.9661 51.7535 26.9661 57.841 31.082L59.269 29.655C58.5732 29.1635 57.8467 28.7169 57.094 28.318 57.053 28.296 57.056 28.288 57.101 28.3 58.01 28.55 58.901 28.838 59.78 29.144L61.35 27.574C57.0132 25.9148 52.4151 25.0431 47.772 25 31.336 25 17.474 36.889 12.276 42L12.276 42C10.7521 43.493 10.6681 45.9192 12.085 47.514 16.7055 52.7393 22.0676 57.2584 28 60.927Z" stroke="#A6A6A6" stroke-width="1.77778" fill="#BFBFBF"/><path d="M67 30.082 81.421 15.66 80.007 14.245 12.965 81.288 14.379 82.7 33.36 63.721C37.8807 65.813 42.7912 66.9302 47.772 67 64.349 67 78.251 53.377 83.459 47.521 84.8804 45.9251 84.7963 43.4938 83.268 42 78.4535 37.2577 72.9731 33.2428 67 30.082ZM53.99 43.091C54.4821 44.1365 54.7006 45.2899 54.625 46.443 54.3771 49.8727 51.647 52.5994 48.217 52.843 47.065 52.9184 45.9127 52.7003 44.868 52.209ZM34.89 62.191 35.416 61.665C36.1548 62.2562 36.9352 62.7936 37.751 63.273 37.795 63.299 37.791 63.306 37.743 63.29 36.768 62.969 35.822 62.592 34.887 62.194ZM36.83 60.25 43.392 53.689C45.0448 54.6436 46.9637 55.0336 48.858 54.8 52.8903 54.2907 56.0653 51.1145 56.573 47.082 56.8076 45.1889 56.4194 43.2708 55.467 41.618L62.028 35.057C68.0975 42.9051 66.6557 54.1875 58.8077 60.257 52.3359 65.2621 43.2997 65.2621 36.828 60.257ZM81.979 46.171C78.068 50.571 69.06 59.547 57.805 63.293 57.757 63.309 57.753 63.302 57.797 63.276 67.3348 57.7741 70.6065 45.582 65.1046 36.0443 64.6162 35.1976 64.0662 34.388 63.459 33.622L65.508 31.573C71.5362 34.6816 77.0585 38.6858 81.887 43.449 82.6384 44.1867 82.6789 45.3842 81.979 46.171Z" stroke="#A6A6A6" stroke-width="1.77778" fill="#BFBFBF"/><path d="M47.772 39.128C48.3738 39.1303 48.9726 39.212 49.553 39.371L51.132 37.792C46.6041 35.9338 41.4272 38.0981 39.569 42.626 38.6843 44.7817 38.6843 47.1992 39.569 49.355L41.148 47.776C40.1517 44.1298 42.2998 40.3664 45.9459 39.37 46.5409 39.2074 47.1552 39.126 47.772 39.128Z" stroke="#A6A6A6" stroke-width="1.77778" fill="#BFBFBF"/></g></svg>